<svg version="1.1" xmlns="http://www.w3.org/2000/svg" xmlns:xlink="http://www.w3.org/1999/xlink" x="0px" y="0px" width="52.603px" height="27.424px" viewBox="22.897 64.288 52.603 27.424" enable-background="new 22.897 64.288 52.603 27.424" xml:space="preserve"><rect x="72.407" y="79.211" fill="none" width="1.025" height="6.497"/><path fill="#444" d="M41.963,84.221v4.517c0,0.546-0.445,0.993-0.991,0.993H22.897v1.981h18.075h26.153H75.5v-1.981h-8.375 c-0.546,0-0.991-0.447-0.991-0.993v-4.517c0-0.546,0.445-0.989,0.991-0.989H75.5v-1.984c-1.865,0-8.375,0-8.375,0 c-0.546,0-0.991-0.444-0.991-0.99V75.74c0-0.546,0.445-0.989,0.991-0.989H75.5v-1.985h-8.375c-1.64,0-2.975,1.335-2.975,2.973v4.518 c0,0.764,0.302,1.455,0.776,1.981c-0.474,0.527-0.776,1.22-0.776,1.982v4.517c0,0.35,0.072,0.68,0.185,0.993H43.763 c0.111-0.313,0.182-0.642,0.182-0.993V84.22c0-0.761-0.297-1.455-0.771-1.982c0.474-0.526,0.771-1.216,0.771-1.981v-4.518 c0-0.762-0.297-1.453-0.771-1.981c0.474-0.527,0.771-1.217,0.771-1.982V67.26c0-0.349-0.071-0.678-0.182-0.99H75.5v-1.982H40.971 H22.897v1.982h18.075c0.546,0,0.991,0.444,0.991,0.99v4.516c0,0.546-0.445,0.991-0.991,0.991H22.897v1.984h18.075 c0.546,0,0.991,0.443,0.991,0.989v4.518c0,0.546-0.445,0.99-0.991,0.99H22.897v1.984h18.075 C41.518,83.232,41.963,83.675,41.963,84.221z"/></svg>